<?xml version="1.0" encoding="utf-8"?>
<!-- Generator: Adobe Illustrator 15.0.0, SVG Export Plug-In  -->
<!DOCTYPE svg PUBLIC "-//W3C//DTD SVG 1.1//EN" "http://www.w3.org/Graphics/SVG/1.1/DTD/svg11.dtd" [
	<!ENTITY ns_flows "http://ns.adobe.com/Flows/1.0/">
]>
<svg version="1.1"
	 xmlns="http://www.w3.org/2000/svg" xmlns:xlink="http://www.w3.org/1999/xlink" xmlns:a="http://ns.adobe.com/AdobeSVGViewerExtensions/3.0/"
	 x="0px" y="0px" width="429px" height="15px" viewBox="0 0 429 15" enable-background="new 0 0 429 15" xml:space="preserve">
<defs>
</defs>
<path fill="#4D4D4F" d="M256.8,11.3c2.9,0,5.2-2,5.3-4.4h2c3.3,0,9.6,4.4,9.6,4.4c6.5-3.4,34.2-4.6,34.8-4.6h119
	c0.5,0,0.9-0.4,0.9-0.9c0-0.5-0.4-0.9-0.9-0.9H308.7v0c-23.5-0.4-36.2-3.1-36.2-3.1c-2.5,3.2-8,3.9-10.6,4c-0.5-2.1-2.6-3.6-5.2-3.6
	c-2.9,0-5.3,2-5.3,4.5S253.9,11.3,256.8,11.3z M273.9,3c0,0,11.9,2.7,21.9,2.9c0,0-15.4,0.8-21.3,3.7c0,0-4.2-2.7-6-3.3
	C268.6,6.3,272.8,4.3,273.9,3z M257.1,3.6c1.6,0,2.9,1.3,2.9,3c0,1.6-1.3,3-2.9,3s-2.9-1.3-2.9-3C254.2,4.9,255.5,3.6,257.1,3.6z"/>
<path fill="#4D4D4F" d="M0.9,6.7h119c0.6,0,28.3,1.2,34.8,4.6c0,0,6.3-4.4,9.6-4.4h2c0.1,2.5,2.4,4.4,5.3,4.4c2.9,0,5.3-2,5.3-4.5
	s-2.4-4.5-5.3-4.5c-2.6,0-4.7,1.6-5.2,3.6c-2.6-0.1-8.1-0.8-10.6-4c0,0-12.7,2.7-36.2,3.1v0H0.9C0.4,4.9,0,5.3,0,5.8
	C0,6.3,0.4,6.7,0.9,6.7z M171.2,3.6c1.6,0,2.9,1.3,2.9,3c0,1.6-1.3,3-2.9,3s-2.9-1.3-2.9-3C168.4,4.9,169.7,3.6,171.2,3.6z M154.4,3
	c1.2,1.3,5.4,3.3,5.4,3.3c-1.7,0.6-6,3.3-6,3.3c-6-2.9-21.3-3.7-21.3-3.7C142.5,5.7,154.4,3,154.4,3z"/>
<path fill="#4D4D4F" d="M234.7,7.6c-3.9-2.8-11.5-0.9-17.7,1.8c-6.2,2.7-11.9,4.6-11.9,4.6c3.5,1.2,11.4-3.3,19.6-5.8
	C231.8,6.1,234.4,7.4,234.7,7.6z"/>
<path fill="#4D4D4F" d="M193,6.2c1,1,4.3,2.1,11-0.1c5.2-1.7,12.7-4.8,12.7-4.8c-5.6-0.6-7.1,1.9-14.4,4.2
	C195.6,7.6,193,6.2,193,6.2z"/>
<path fill="#4D4D4F" d="M189.3,14c7.6,0.6,14-2.2,20.3-4.8l2.7-1.1c6.5-2.8,15.4-6.5,23.5-6.3c7.4,0.2,11.7,2.2,11.7,5.3
	c0,2.8-2.6,4.4-7.9,4.8c-5.2,0.4-9.8-2.7-9.8-2.7c-0.4-0.3-0.9-0.2-1.2,0.2c-0.3,0.4-0.2,0.9,0.2,1.2c0.2,0.1,5.1,3.5,10.9,3
	c7.8-0.6,9.5-3.9,9.5-6.5c0-2.5-1.7-6.7-13.4-7.1c-8.5-0.3-17.2,3-23.8,5.9L209.3,7c-6,2.6-12.7,5.8-19.9,5.3
	c-8.5-0.6-9.6-3.3-9.6-5.6c0-0.7,0.3-1.2,0.8-1.7c1.4-1.4,4.6-2.1,8.3-2c4.5,0.1,7.9,1.4,7.9,1.5c0.4,0.2,0.9,0,1.2-0.4
	c0.2-0.4,0-0.9-0.4-1.2c-0.2-0.1-3.7-1.5-8.6-1.6c-4.2-0.1-7.8,0.8-9.5,2.5c-0.9,0.8-1.3,1.8-1.3,3C178.1,11.1,181.7,13.4,189.3,14z
	"/>
</svg>
