<!DOCTYPE svg PUBLIC "-//W3C//DTD SVG 1.1//EN" "http://www.w3.org/Graphics/SVG/1.1/DTD/svg11.dtd">
<svg xmlns="http://www.w3.org/2000/svg" xmlns:xlink="http://www.w3.org/1999/xlink" width="1063px" height="1184px" version="1.1"><defs><clipPath id="mx-clip-105-329-62-26-0"><rect x="105" y="329" width="62" height="26"/></clipPath><clipPath id="mx-clip-105-355-62-28-0"><rect x="105" y="355" width="62" height="28"/></clipPath><clipPath id="mx-clip-265-429-62-26-0"><rect x="265" y="429" width="62" height="26"/></clipPath><clipPath id="mx-clip-265-455-62-28-0"><rect x="265" y="455" width="62" height="28"/></clipPath><clipPath id="mx-clip-265-530-62-26-0"><rect x="265" y="530" width="62" height="26"/></clipPath><clipPath id="mx-clip-265-556-62-28-0"><rect x="265" y="556" width="62" height="28"/></clipPath><clipPath id="mx-clip-165-529-62-26-0"><rect x="165" y="529" width="62" height="26"/></clipPath><clipPath id="mx-clip-165-555-62-28-0"><rect x="165" y="555" width="62" height="28"/></clipPath><clipPath id="mx-clip-425-530-62-26-0"><rect x="425" y="530" width="62" height="26"/></clipPath><clipPath id="mx-clip-425-556-62-28-0"><rect x="425" y="556" width="62" height="28"/></clipPath><clipPath id="mx-clip-265-631-62-26-0"><rect x="265" y="631" width="62" height="26"/></clipPath><clipPath id="mx-clip-265-657-62-28-0"><rect x="265" y="657" width="62" height="28"/></clipPath><clipPath id="mx-clip-425-631-62-26-0"><rect x="425" y="631" width="62" height="26"/></clipPath><clipPath id="mx-clip-425-657-62-28-0"><rect x="425" y="657" width="62" height="28"/></clipPath><clipPath id="mx-clip-355-730-62-26-0"><rect x="355" y="730" width="62" height="26"/></clipPath><clipPath id="mx-clip-355-756-62-28-0"><rect x="355" y="756" width="62" height="28"/></clipPath><clipPath id="mx-clip-495-731-62-26-0"><rect x="495" y="731" width="62" height="26"/></clipPath><clipPath id="mx-clip-495-757-62-28-0"><rect x="495" y="757" width="62" height="28"/></clipPath><clipPath id="mx-clip-425-831-62-26-0"><rect x="425" y="831" width="62" height="26"/></clipPath><clipPath id="mx-clip-425-857-62-28-0"><rect x="425" y="857" width="62" height="28"/></clipPath><clipPath id="mx-clip-565-831-62-26-0"><rect x="565" y="831" width="62" height="26"/></clipPath><clipPath id="mx-clip-565-857-62-28-0"><rect x="565" y="857" width="62" height="28"/></clipPath><clipPath id="mx-clip-495-931-62-26-0"><rect x="495" y="931" width="62" height="26"/></clipPath><clipPath id="mx-clip-495-957-62-28-0"><rect x="495" y="957" width="62" height="28"/></clipPath><clipPath id="mx-clip-635-931-62-26-0"><rect x="635" y="931" width="62" height="26"/></clipPath><clipPath id="mx-clip-635-957-62-28-0"><rect x="635" y="957" width="62" height="28"/></clipPath><clipPath id="mx-clip-265-329-62-26-0"><rect x="265" y="329" width="62" height="26"/></clipPath><clipPath id="mx-clip-265-355-62-28-0"><rect x="265" y="355" width="62" height="28"/></clipPath><clipPath id="mx-clip-825-431-62-26-0"><rect x="825" y="431" width="62" height="26"/></clipPath><clipPath id="mx-clip-825-457-62-28-0"><rect x="825" y="457" width="62" height="28"/></clipPath><clipPath id="mx-clip-685-431-62-26-0"><rect x="685" y="431" width="62" height="26"/></clipPath><clipPath id="mx-clip-685-457-62-28-0"><rect x="685" y="457" width="62" height="28"/></clipPath><clipPath id="mx-clip-825-531-62-26-0"><rect x="825" y="531" width="62" height="26"/></clipPath><clipPath id="mx-clip-825-557-62-28-0"><rect x="825" y="557" width="62" height="28"/></clipPath><clipPath id="mx-clip-825-631-62-26-0"><rect x="825" y="631" width="62" height="26"/></clipPath><clipPath id="mx-clip-825-657-62-28-0"><rect x="825" y="657" width="62" height="28"/></clipPath><clipPath id="mx-clip-755-730-62-26-0"><rect x="755" y="730" width="62" height="26"/></clipPath><clipPath id="mx-clip-755-756-62-28-0"><rect x="755" y="756" width="62" height="28"/></clipPath><clipPath id="mx-clip-895-731-62-26-0"><rect x="895" y="731" width="62" height="26"/></clipPath><clipPath id="mx-clip-895-757-62-28-0"><rect x="895" y="757" width="62" height="28"/></clipPath><clipPath id="mx-clip-895-831-62-26-0"><rect x="895" y="831" width="62" height="26"/></clipPath><clipPath id="mx-clip-895-857-62-28-0"><rect x="895" y="857" width="62" height="28"/></clipPath><clipPath id="mx-clip-795-931-62-26-0"><rect x="795" y="931" width="62" height="26"/></clipPath><clipPath id="mx-clip-795-957-62-28-0"><rect x="795" y="957" width="62" height="28"/></clipPath><clipPath id="mx-clip-895-931-62-26-0"><rect x="895" y="931" width="62" height="26"/></clipPath><clipPath id="mx-clip-895-957-62-28-0"><rect x="895" y="957" width="62" height="28"/></clipPath><clipPath id="mx-clip-755-329-62-26-0"><rect x="755" y="329" width="62" height="26"/></clipPath><clipPath id="mx-clip-755-355-62-28-0"><rect x="755" y="355" width="62" height="28"/></clipPath><clipPath id="mx-clip-655-130-62-26-0"><rect x="655" y="130" width="62" height="26"/></clipPath><clipPath id="mx-clip-655-156-62-28-0"><rect x="655" y="156" width="62" height="28"/></clipPath><clipPath id="mx-clip-655-230-62-26-0"><rect x="655" y="230" width="62" height="26"/></clipPath><clipPath id="mx-clip-655-256-62-28-0"><rect x="655" y="256" width="62" height="28"/></clipPath><clipPath id="mx-clip-585-329-62-26-0"><rect x="585" y="329" width="62" height="26"/></clipPath><clipPath id="mx-clip-585-355-62-28-0"><rect x="585" y="355" width="62" height="28"/></clipPath><clipPath id="mx-clip-585-431-62-26-0"><rect x="585" y="431" width="62" height="26"/></clipPath><clipPath id="mx-clip-585-457-62-28-0"><rect x="585" y="457" width="62" height="28"/></clipPath><clipPath id="mx-clip-995-930-62-26-0"><rect x="995" y="930" width="62" height="26"/></clipPath><clipPath id="mx-clip-995-956-62-28-0"><rect x="995" y="956" width="62" height="28"/></clipPath><clipPath id="mx-clip-995-1031-62-26-0"><rect x="995" y="1031" width="62" height="26"/></clipPath><clipPath id="mx-clip-995-1057-62-28-0"><rect x="995" y="1057" width="62" height="28"/></clipPath><clipPath id="mx-clip-995-1131-62-26-0"><rect x="995" y="1131" width="62" height="26"/></clipPath><clipPath id="mx-clip-995-1157-62-28-0"><rect x="995" y="1157" width="62" height="28"/></clipPath><clipPath id="mx-clip-395-31-62-26-0"><rect x="395" y="31" width="62" height="26"/></clipPath><clipPath id="mx-clip-395-57-62-28-0"><rect x="395" y="57" width="62" height="28"/></clipPath><clipPath id="mx-clip-165-130-62-26-0"><rect x="165" y="130" width="62" height="26"/></clipPath><clipPath id="mx-clip-165-156-62-28-0"><rect x="165" y="156" width="62" height="28"/></clipPath><clipPath id="mx-clip-165-230-62-26-0"><rect x="165" y="230" width="62" height="26"/></clipPath><clipPath id="mx-clip-165-256-62-28-0"><rect x="165" y="256" width="62" height="28"/></clipPath><clipPath id="mx-clip-5-329-62-26-0"><rect x="5" y="329" width="62" height="26"/></clipPath><clipPath id="mx-clip-5-355-62-28-0"><rect x="5" y="355" width="62" height="28"/></clipPath></defs><g transform="translate(0.5,0.5)"><path d="M 195.71 98.43 Q 195.71 38.43 385.06 38.43" fill="none" stroke="#000000" stroke-miterlimit="10" pointer-events="none"/><path d="M 390.31 38.43 L 383.31 41.93 L 385.06 38.43 L 383.31 34.93 Z" fill="#000000" stroke="#000000" stroke-miterlimit="10" pointer-events="none"/><path d="M 195.71 198.43 Q 195.71 198.43 195.71 184.8" fill="none" stroke="#000000" stroke-miterlimit="10" pointer-events="none"/><path d="M 195.71 179.55 L 199.21 186.55 L 195.71 184.8 L 192.21 186.55 Z" fill="#000000" stroke="#000000" stroke-miterlimit="10" pointer-events="none"/><path d="M 135.71 298.43 Q 135.71 265.57 155.06 265.57" fill="none" stroke="#000000" stroke-miterlimit="10" pointer-events="none"/><path d="M 160.31 265.57 L 153.31 269.07 L 155.06 265.57 L 153.31 262.07 Z" fill="#000000" stroke="#000000" stroke-miterlimit="10" pointer-events="none"/><rect x="101" y="298" width="70" height="80" rx="11.7" ry="11.7" fill="#ffffff" stroke="#ff3333" stroke-width="3" pointer-events="none"/><path d="M 171 324 L 171 309.7 Q 171 298 159.3 298 L 112.7 298 Q 101 298 101 309.7 L 101 324 Z" fill="#009900" stroke="#ff3333" stroke-width="3" stroke-miterlimit="10" pointer-events="none"/><g fill="#FFFFFF" font-family="Verdana" text-anchor="middle" font-size="14px"><text x="134.79" y="316.93">S1@TA</text></g><g fill="#000000" font-family="Helvetica" clip-path="url(#mx-clip-105-329-62-26-0)" text-anchor="middle" font-size="14px"><text x="135.5" y="343.5">Translate</text></g><g fill="#000000" font-family="Helvetica" clip-path="url(#mx-clip-105-355-62-28-0)" text-anchor="middle" font-size="14px"><text x="135.5" y="369.5">S1@T9</text></g><path d="M 295.71 398.43 Q 295.71 378.43 295.71 384.37" fill="none" stroke="#000000" stroke-miterlimit="10" pointer-events="none"/><path d="M 295.71 379.12 L 299.21 386.12 L 295.71 384.37 L 292.21 386.12 Z" fill="#000000" stroke="#000000" stroke-miterlimit="10" pointer-events="none"/><rect x="261" y="398" width="70" height="80" rx="11.7" ry="11.7" fill="#ffffff" stroke="#000000" pointer-events="none"/><path d="M 331 424 L 331 409.7 Q 331 398 319.3 398 L 272.7 398 Q 261 398 261 409.7 L 261 424 Z" fill="#009900" stroke="#000000" stroke-miterlimit="10" pointer-events="none"/><g fill="#FFFFFF" font-family="Verdana" text-anchor="middle" font-size="14px"><text x="294.79" y="415.5">S1@TA</text></g><g fill="#000000" font-family="Helvetica" clip-path="url(#mx-clip-265-429-62-26-0)" text-anchor="middle" font-size="14px"><text x="295.5" y="443.5">Point 'a2'</text></g><g fill="#000000" font-family="Helvetica" clip-path="url(#mx-clip-265-455-62-28-0)" text-anchor="middle" font-size="14px"><text x="295.5" y="469.5">S1@T9</text></g><path d="M 295.71 498.43 Q 295.71 478.43 295.71 484.37" fill="none" stroke="#000000" stroke-miterlimit="10" pointer-events="none"/><path d="M 295.71 479.12 L 299.21 486.12 L 295.71 484.37 L 292.21 486.12 Z" fill="#000000" stroke="#000000" stroke-miterlimit="10" pointer-events="none"/><rect x="261" y="499" width="70" height="80" rx="11.7" ry="11.7" fill="#ffffff" stroke="#000000" pointer-events="none"/><path d="M 331 525 L 331 510.7 Q 331 499 319.3 499 L 272.7 499 Q 261 499 261 510.7 L 261 525 Z" fill="#009900" stroke="#000000" stroke-miterlimit="10" pointer-events="none"/><g fill="#FFFFFF" font-family="Verdana" text-anchor="middle" font-size="14px"><text x="294.79" y="516.5">S1@TA</text></g><g fill="#000000" font-family="Helvetica" clip-path="url(#mx-clip-265-530-62-26-0)" text-anchor="middle" font-size="14px"><text x="295.5" y="544.5">Point 'a3'</text></g><g fill="#000000" font-family="Helvetica" clip-path="url(#mx-clip-265-556-62-28-0)" text-anchor="middle" font-size="14px"><text x="295.5" y="570.5">S1@T9</text></g><path d="M 195.71 498.43 Q 195.71 437 254.63 437" fill="none" stroke="#000000" stroke-miterlimit="10" pointer-events="none"/><path d="M 259.88 437 L 252.88 440.5 L 254.63 437 L 252.88 433.5 Z" fill="#000000" stroke="#000000" stroke-miterlimit="10" pointer-events="none"/><rect x="161" y="498" width="70" height="80" rx="11.7" ry="11.7" fill="#ffffff" stroke="#ff3333" stroke-width="3" pointer-events="none"/><path d="M 231 524 L 231 509.7 Q 231 498 219.3 498 L 172.7 498 Q 161 498 161 509.7 L 161 524 Z" fill="#009900" stroke="#ff3333" stroke-width="3" stroke-miterlimit="10" pointer-events="none"/><g fill="#FFFFFF" font-family="Verdana" text-anchor="middle" font-size="14px"><text x="194.79" y="516.93">S1@TA</text></g><g fill="#000000" font-family="Helvetica" clip-path="url(#mx-clip-165-529-62-26-0)" text-anchor="middle" font-size="14px"><text x="195.5" y="543.5">Translate</text></g><g fill="#000000" font-family="Helvetica" clip-path="url(#mx-clip-165-555-62-28-0)" text-anchor="middle" font-size="14px"><text x="195.5" y="569.5">S1@T9</text></g><path d="M 455.71 498.43 Q 455.71 437 337.8 437" fill="none" stroke="#000000" stroke-miterlimit="10" pointer-events="none"/><path d="M 332.55 437 L 339.55 433.5 L 337.8 437 L 339.55 440.5 Z" fill="#000000" stroke="#000000" stroke-miterlimit="10" pointer-events="none"/><rect x="421" y="499" width="70" height="80" rx="11.7" ry="11.7" fill="#ffffff" stroke="#000000" pointer-events="none"/><path d="M 491 525 L 491 510.7 Q 491 499 479.3 499 L 432.7 499 Q 421 499 421 510.7 L 421 525 Z" fill="#009900" stroke="#000000" stroke-miterlimit="10" pointer-events="none"/><g fill="#FFFFFF" font-family="Verdana" text-anchor="middle" font-size="14px"><text x="454.79" y="516.5">S1@TA</text></g><g fill="#000000" font-family="Helvetica" clip-path="url(#mx-clip-425-530-62-26-0)" text-anchor="middle" font-size="14px"><text x="455.5" y="544.5">Point 'a4'</text></g><g fill="#000000" font-family="Helvetica" clip-path="url(#mx-clip-425-556-62-28-0)" text-anchor="middle" font-size="14px"><text x="455.5" y="570.5">S1@T9</text></g><path d="M 35.71 298.43 Q 35.71 238.43 155.06 238.43" fill="none" stroke="#000000" stroke-miterlimit="10" pointer-events="none"/><path d="M 160.31 238.43 L 153.31 241.93 L 155.06 238.43 L 153.31 234.93 Z" fill="#000000" stroke="#000000" stroke-miterlimit="10" pointer-events="none"/><path d="M 295.71 599.86 Q 295.71 579.86 295.71 584.46" fill="none" stroke="#000000" stroke-miterlimit="10" pointer-events="none"/><path d="M 295.71 579.96 L 298.71 585.96 L 295.71 584.46 L 292.71 585.96 Z" fill="#000000" stroke="#000000" stroke-miterlimit="10" pointer-events="none"/><rect x="261" y="600" width="70" height="80" rx="11.7" ry="11.7" fill="#ffffff" stroke="#ff3333" stroke-width="3" pointer-events="none"/><path d="M 331 626 L 331 611.7 Q 331 600 319.3 600 L 272.7 600 Q 261 600 261 611.7 L 261 626 Z" fill="#009900" stroke="#ff3333" stroke-width="3" stroke-miterlimit="10" pointer-events="none"/><g fill="#FFFFFF" font-family="Verdana" text-anchor="middle" font-size="14px"><text x="294.79" y="618.93">S1@TA</text></g><g fill="#000000" font-family="Helvetica" clip-path="url(#mx-clip-265-631-62-26-0)" text-anchor="middle" font-size="14px"><text x="295.5" y="645.5">Set Round</text></g><g fill="#000000" font-family="Helvetica" clip-path="url(#mx-clip-265-657-62-28-0)" text-anchor="middle" font-size="14px"><text x="295.5" y="671.5">S1@T9</text></g><path d="M 455.71 599.86 Q 455.71 579.86 455.71 584.46" fill="none" stroke="#000000" stroke-miterlimit="10" pointer-events="none"/><path d="M 455.71 579.96 L 458.71 585.96 L 455.71 584.46 L 452.71 585.96 Z" fill="#000000" stroke="#000000" stroke-miterlimit="10" pointer-events="none"/><rect x="421" y="600" width="70" height="80" rx="11.7" ry="11.7" fill="#ffffff" stroke="#000000" pointer-events="none"/><path d="M 491 626 L 491 611.7 Q 491 600 479.3 600 L 432.7 600 Q 421 600 421 611.7 L 421 626 Z" fill="#009900" stroke="#000000" stroke-miterlimit="10" pointer-events="none"/><g fill="#FFFFFF" font-family="Verdana" text-anchor="middle" font-size="14px"><text x="454.79" y="617.5">S1@TA</text></g><g fill="#000000" font-family="Helvetica" clip-path="url(#mx-clip-425-631-62-26-0)" text-anchor="middle" font-size="14px"><text x="455.5" y="645.5">Point 'a5'</text></g><g fill="#000000" font-family="Helvetica" clip-path="url(#mx-clip-425-657-62-28-0)" text-anchor="middle" font-size="14px"><text x="455.5" y="671.5">S1@T9</text></g><path d="M 368.57 698.43 Q 368.57 638.43 415.06 638.43" fill="none" stroke="#000000" stroke-miterlimit="10" pointer-events="none"/><path d="M 420.31 638.43 L 413.31 641.93 L 415.06 638.43 L 413.31 634.93 Z" fill="#000000" stroke="#000000" stroke-miterlimit="10" pointer-events="none"/><rect x="351" y="699" width="70" height="80" rx="11.7" ry="11.7" fill="#ffffff" stroke="#ff3333" stroke-width="3" pointer-events="none"/><path d="M 421 725 L 421 710.7 Q 421 699 409.3 699 L 362.7 699 Q 351 699 351 710.7 L 351 725 Z" fill="#009900" stroke="#ff3333" stroke-width="3" stroke-miterlimit="10" pointer-events="none"/><g fill="#FFFFFF" font-family="Verdana" text-anchor="middle" font-size="14px"><text x="384.79" y="717.93">S1@TA</text></g><g fill="#000000" font-family="Helvetica" clip-path="url(#mx-clip-355-730-62-26-0)" text-anchor="middle" font-size="14px"><text x="385.5" y="744.5">Translate</text></g><g fill="#000000" font-family="Helvetica" clip-path="url(#mx-clip-355-756-62-28-0)" text-anchor="middle" font-size="14px"><text x="385.5" y="770.5">S1@T9</text></g><path d="M 542.86 699.86 Q 542.86 638.43 497.8 638.43" fill="none" stroke="#000000" stroke-miterlimit="10" pointer-events="none"/><path d="M 492.55 638.43 L 499.55 634.93 L 497.8 638.43 L 499.55 641.93 Z" fill="#000000" stroke="#000000" stroke-miterlimit="10" pointer-events="none"/><rect x="491" y="700" width="70" height="80" rx="11.7" ry="11.7" fill="#ffffff" stroke="#000000" pointer-events="none"/><path d="M 561 726 L 561 711.7 Q 561 700 549.3 700 L 502.7 700 Q 491 700 491 711.7 L 491 726 Z" fill="#009900" stroke="#000000" stroke-miterlimit="10" pointer-events="none"/><g fill="#FFFFFF" font-family="Verdana" text-anchor="middle" font-size="14px"><text x="524.79" y="717.5">S1@TA</text></g><g fill="#000000" font-family="Helvetica" clip-path="url(#mx-clip-495-731-62-26-0)" text-anchor="middle" font-size="14px"><text x="525.5" y="745.5">Point 'a6'</text></g><g fill="#000000" font-family="Helvetica" clip-path="url(#mx-clip-495-757-62-28-0)" text-anchor="middle" font-size="14px"><text x="525.5" y="771.5">S1@T9</text></g><path d="M 438.57 799.86 Q 438.57 738.43 485.06 738.43" fill="none" stroke="#000000" stroke-miterlimit="10" pointer-events="none"/><path d="M 490.31 738.43 L 483.31 741.93 L 485.06 738.43 L 483.31 734.93 Z" fill="#000000" stroke="#000000" stroke-miterlimit="10" pointer-events="none"/><rect x="421" y="800" width="70" height="80" rx="11.7" ry="11.7" fill="#ffffff" stroke="#ff3333" stroke-width="3" pointer-events="none"/><path d="M 491 826 L 491 811.7 Q 491 800 479.3 800 L 432.7 800 Q 421 800 421 811.7 L 421 826 Z" fill="#009900" stroke="#ff3333" stroke-width="3" stroke-miterlimit="10" pointer-events="none"/><g fill="#FFFFFF" font-family="Verdana" text-anchor="middle" font-size="14px"><text x="454.79" y="818.93">S1@TA</text></g><g fill="#000000" font-family="Helvetica" clip-path="url(#mx-clip-425-831-62-26-0)" text-anchor="middle" font-size="14px"><text x="455.5" y="845.5">Set Round</text></g><g fill="#000000" font-family="Helvetica" clip-path="url(#mx-clip-425-857-62-28-0)" text-anchor="middle" font-size="14px"><text x="455.5" y="871.5">S1@T9</text></g><path d="M 612.86 799.86 Q 612.86 738.43 567.8 738.43" fill="none" stroke="#000000" stroke-miterlimit="10" pointer-events="none"/><path d="M 562.55 738.43 L 569.55 734.93 L 567.8 738.43 L 569.55 741.93 Z" fill="#000000" stroke="#000000" stroke-miterlimit="10" pointer-events="none"/><rect x="561" y="800" width="70" height="80" rx="11.7" ry="11.7" fill="#ffffff" stroke="#000000" pointer-events="none"/><path d="M 631 826 L 631 811.7 Q 631 800 619.3 800 L 572.7 800 Q 561 800 561 811.7 L 561 826 Z" fill="#009900" stroke="#000000" stroke-miterlimit="10" pointer-events="none"/><g fill="#FFFFFF" font-family="Verdana" text-anchor="middle" font-size="14px"><text x="594.79" y="817.5">S1@TA</text></g><g fill="#000000" font-family="Helvetica" clip-path="url(#mx-clip-565-831-62-26-0)" text-anchor="middle" font-size="14px"><text x="595.5" y="845.5">Point 'a7'</text></g><g fill="#000000" font-family="Helvetica" clip-path="url(#mx-clip-565-857-62-28-0)" text-anchor="middle" font-size="14px"><text x="595.5" y="871.5">S1@T9</text></g><path d="M 508.57 899.86 Q 508.57 838.43 555.06 838.43" fill="none" stroke="#000000" stroke-miterlimit="10" pointer-events="none"/><path d="M 560.31 838.43 L 553.31 841.93 L 555.06 838.43 L 553.31 834.93 Z" fill="#000000" stroke="#000000" stroke-miterlimit="10" pointer-events="none"/><rect x="491" y="900" width="70" height="80" rx="11.7" ry="11.7" fill="#ffffff" stroke="#ff3333" stroke-width="3" pointer-events="none"/><path d="M 561 926 L 561 911.7 Q 561 900 549.3 900 L 502.7 900 Q 491 900 491 911.7 L 491 926 Z" fill="#009900" stroke="#ff3333" stroke-width="3" stroke-miterlimit="10" pointer-events="none"/><g fill="#FFFFFF" font-family="Verdana" text-anchor="middle" font-size="14px"><text x="524.79" y="918.93">S1@TA</text></g><g fill="#000000" font-family="Helvetica" clip-path="url(#mx-clip-495-931-62-26-0)" text-anchor="middle" font-size="14px"><text x="525.5" y="945.5">Delete</text></g><g fill="#000000" font-family="Helvetica" clip-path="url(#mx-clip-495-957-62-28-0)" text-anchor="middle" font-size="14px"><text x="525.5" y="971.5">S1@T9</text></g><path d="M 682.86 899.86 Q 682.86 838.43 637.8 838.43" fill="none" stroke="#000000" stroke-miterlimit="10" pointer-events="none"/><path d="M 632.55 838.43 L 639.55 834.93 L 637.8 838.43 L 639.55 841.93 Z" fill="#000000" stroke="#000000" stroke-miterlimit="10" pointer-events="none"/><rect x="631" y="900" width="70" height="80" rx="11.7" ry="11.7" fill="#ffffff" stroke="#000000" pointer-events="none"/><path d="M 701 926 L 701 911.7 Q 701 900 689.3 900 L 642.7 900 Q 631 900 631 911.7 L 631 926 Z" fill="#009900" stroke="#000000" stroke-miterlimit="10" pointer-events="none"/><g fill="#FFFFFF" font-family="Verdana" text-anchor="middle" font-size="14px"><text x="664.79" y="917.5">S1@TA</text></g><g fill="#000000" font-family="Helvetica" clip-path="url(#mx-clip-635-931-62-26-0)" text-anchor="middle" font-size="14px"><text x="665.5" y="945.5">Point 'a8'</text></g><g fill="#000000" font-family="Helvetica" clip-path="url(#mx-clip-635-957-62-28-0)" text-anchor="middle" font-size="14px"><text x="665.5" y="971.5">S1@T9</text></g><path d="M 295.71 298.43 Q 295.71 238.43 237.8 238.43" fill="none" stroke="#000000" stroke-miterlimit="10" pointer-events="none"/><path d="M 232.55 238.43 L 239.55 234.93 L 237.8 238.43 L 239.55 241.93 Z" fill="#000000" stroke="#000000" stroke-miterlimit="10" pointer-events="none"/><rect x="261" y="298" width="70" height="80" rx="11.7" ry="11.7" fill="#ffffff" stroke="#000000" pointer-events="none"/><path d="M 331 324 L 331 309.7 Q 331 298 319.3 298 L 272.7 298 Q 261 298 261 309.7 L 261 324 Z" fill="#009900" stroke="#000000" stroke-miterlimit="10" pointer-events="none"/><g fill="#FFFFFF" font-family="Verdana" text-anchor="middle" font-size="14px"><text x="294.79" y="315.5">S1@TA</text></g><g fill="#000000" font-family="Helvetica" clip-path="url(#mx-clip-265-329-62-26-0)" text-anchor="middle" font-size="14px"><text x="295.5" y="343.5">Point 'a1'</text></g><g fill="#000000" font-family="Helvetica" clip-path="url(#mx-clip-265-355-62-28-0)" text-anchor="middle" font-size="14px"><text x="295.5" y="369.5">S1@T9</text></g><path d="M 685.71 198.43 Q 685.71 198.43 685.71 184.8" fill="none" stroke="#000000" stroke-miterlimit="10" pointer-events="none"/><path d="M 685.71 179.55 L 689.21 186.55 L 685.71 184.8 L 682.21 186.55 Z" fill="#000000" stroke="#000000" stroke-miterlimit="10" pointer-events="none"/><path d="M 872.86 399.86 Q 872.86 337 827.8 337" fill="none" stroke="#000000" stroke-miterlimit="10" pointer-events="none"/><path d="M 822.55 337 L 829.55 333.5 L 827.8 337 L 829.55 340.5 Z" fill="#000000" stroke="#000000" stroke-miterlimit="10" pointer-events="none"/><rect x="821" y="400" width="70" height="80" rx="11.7" ry="11.7" fill="#ffffff" stroke="#000000" pointer-events="none"/><path d="M 891 426 L 891 411.7 Q 891 400 879.3 400 L 832.7 400 Q 821 400 821 411.7 L 821 426 Z" fill="#009900" stroke="#000000" stroke-miterlimit="10" pointer-events="none"/><g fill="#FFFFFF" font-family="Verdana" text-anchor="middle" font-size="14px"><text x="854.79" y="417.5">S1@TA</text></g><g fill="#000000" font-family="Helvetica" clip-path="url(#mx-clip-825-431-62-26-0)" text-anchor="middle" font-size="14px"><text x="855.5" y="445.5">Point 'b2'</text></g><g fill="#000000" font-family="Helvetica" clip-path="url(#mx-clip-825-457-62-28-0)" text-anchor="middle" font-size="14px"><text x="855.5" y="471.5">S1@T9</text></g><path d="M 698.57 399.86 Q 698.57 337 745.06 337" fill="none" stroke="#000000" stroke-miterlimit="10" pointer-events="none"/><path d="M 750.31 337 L 743.31 340.5 L 745.06 337 L 743.31 333.5 Z" fill="#000000" stroke="#000000" stroke-miterlimit="10" pointer-events="none"/><rect x="681" y="400" width="70" height="80" rx="11.7" ry="11.7" fill="#ffffff" stroke="#ff3333" stroke-width="3" pointer-events="none"/><path d="M 751 426 L 751 411.7 Q 751 400 739.3 400 L 692.7 400 Q 681 400 681 411.7 L 681 426 Z" fill="#009900" stroke="#ff3333" stroke-width="3" stroke-miterlimit="10" pointer-events="none"/><g fill="#FFFFFF" font-family="Verdana" text-anchor="middle" font-size="14px"><text x="714.79" y="418.93">S1@TA</text></g><g fill="#000000" font-family="Helvetica" clip-path="url(#mx-clip-685-431-62-26-0)" text-anchor="middle" font-size="14px"><text x="715.5" y="445.5">Delete</text></g><g fill="#000000" font-family="Helvetica" clip-path="url(#mx-clip-685-457-62-28-0)" text-anchor="middle" font-size="14px"><text x="715.5" y="471.5">S1@T9</text></g><path d="M 855.71 499.86 Q 855.71 479.86 855.71 486.37" fill="none" stroke="#000000" stroke-miterlimit="10" pointer-events="none"/><path d="M 855.71 481.12 L 859.21 488.12 L 855.71 486.37 L 852.21 488.12 Z" fill="#000000" stroke="#000000" stroke-miterlimit="10" pointer-events="none"/><rect x="821" y="500" width="70" height="80" rx="11.7" ry="11.7" fill="#ffffff" stroke="#000000" pointer-events="none"/><path d="M 891 526 L 891 511.7 Q 891 500 879.3 500 L 832.7 500 Q 821 500 821 511.7 L 821 526 Z" fill="#009900" stroke="#000000" stroke-miterlimit="10" pointer-events="none"/><g fill="#FFFFFF" font-family="Verdana" text-anchor="middle" font-size="14px"><text x="854.79" y="517.5">S1@TA</text></g><g fill="#000000" font-family="Helvetica" clip-path="url(#mx-clip-825-531-62-26-0)" text-anchor="middle" font-size="14px"><text x="855.5" y="545.5">Point 'b3'</text></g><g fill="#000000" font-family="Helvetica" clip-path="url(#mx-clip-825-557-62-28-0)" text-anchor="middle" font-size="14px"><text x="855.5" y="571.5">S1@T9</text></g><path d="M 855.71 599.86 Q 855.71 579.86 855.71 586.37" fill="none" stroke="#000000" stroke-miterlimit="10" pointer-events="none"/><path d="M 855.71 581.12 L 859.21 588.12 L 855.71 586.37 L 852.21 588.12 Z" fill="#000000" stroke="#000000" stroke-miterlimit="10" pointer-events="none"/><rect x="821" y="600" width="70" height="80" rx="11.7" ry="11.7" fill="#ffffff" stroke="#000000" pointer-events="none"/><path d="M 891 626 L 891 611.7 Q 891 600 879.3 600 L 832.7 600 Q 821 600 821 611.7 L 821 626 Z" fill="#009900" stroke="#000000" stroke-miterlimit="10" pointer-events="none"/><g fill="#FFFFFF" font-family="Verdana" text-anchor="middle" font-size="14px"><text x="854.79" y="617.5">S1@TA</text></g><g fill="#000000" font-family="Helvetica" clip-path="url(#mx-clip-825-631-62-26-0)" text-anchor="middle" font-size="14px"><text x="855.5" y="645.5">Point 'b4'</text></g><g fill="#000000" font-family="Helvetica" clip-path="url(#mx-clip-825-657-62-28-0)" text-anchor="middle" font-size="14px"><text x="855.5" y="671.5">S1@T9</text></g><path d="M 768.57 698.43 Q 768.57 638.43 815.06 638.43" fill="none" stroke="#000000" stroke-miterlimit="10" pointer-events="none"/><path d="M 820.31 638.43 L 813.31 641.93 L 815.06 638.43 L 813.31 634.93 Z" fill="#000000" stroke="#000000" stroke-miterlimit="10" pointer-events="none"/><rect x="751" y="699" width="70" height="80" rx="11.7" ry="11.7" fill="#ffffff" stroke="#ff3333" stroke-width="3" pointer-events="none"/><path d="M 821 725 L 821 710.7 Q 821 699 809.3 699 L 762.7 699 Q 751 699 751 710.7 L 751 725 Z" fill="#009900" stroke="#ff3333" stroke-width="3" stroke-miterlimit="10" pointer-events="none"/><g fill="#FFFFFF" font-family="Verdana" text-anchor="middle" font-size="14px"><text x="784.79" y="717.93">S1@TA</text></g><g fill="#000000" font-family="Helvetica" clip-path="url(#mx-clip-755-730-62-26-0)" text-anchor="middle" font-size="14px"><text x="785.5" y="744.5">Delete</text></g><g fill="#000000" font-family="Helvetica" clip-path="url(#mx-clip-755-756-62-28-0)" text-anchor="middle" font-size="14px"><text x="785.5" y="770.5">S1@T9</text></g><path d="M 942.86 699.86 Q 942.86 638.43 897.8 638.43" fill="none" stroke="#000000" stroke-miterlimit="10" pointer-events="none"/><path d="M 892.55 638.43 L 899.55 634.93 L 897.8 638.43 L 899.55 641.93 Z" fill="#000000" stroke="#000000" stroke-miterlimit="10" pointer-events="none"/><rect x="891" y="700" width="70" height="80" rx="11.7" ry="11.7" fill="#ffffff" stroke="#000000" pointer-events="none"/><path d="M 961 726 L 961 711.7 Q 961 700 949.3 700 L 902.7 700 Q 891 700 891 711.7 L 891 726 Z" fill="#009900" stroke="#000000" stroke-miterlimit="10" pointer-events="none"/><g fill="#FFFFFF" font-family="Verdana" text-anchor="middle" font-size="14px"><text x="924.79" y="717.5">S1@TA</text></g><g fill="#000000" font-family="Helvetica" clip-path="url(#mx-clip-895-731-62-26-0)" text-anchor="middle" font-size="14px"><text x="925.5" y="745.5">Point 'b5'</text></g><g fill="#000000" font-family="Helvetica" clip-path="url(#mx-clip-895-757-62-28-0)" text-anchor="middle" font-size="14px"><text x="925.5" y="771.5">S1@T9</text></g><path d="M 925.71 799.86 Q 925.71 779.86 925.71 786.37" fill="none" stroke="#000000" stroke-miterlimit="10" pointer-events="none"/><path d="M 925.71 781.12 L 929.21 788.12 L 925.71 786.37 L 922.21 788.12 Z" fill="#000000" stroke="#000000" stroke-miterlimit="10" pointer-events="none"/><rect x="891" y="800" width="70" height="80" rx="11.7" ry="11.7" fill="#ffffff" stroke="#000000" pointer-events="none"/><path d="M 961 826 L 961 811.7 Q 961 800 949.3 800 L 902.7 800 Q 891 800 891 811.7 L 891 826 Z" fill="#009900" stroke="#000000" stroke-miterlimit="10" pointer-events="none"/><g fill="#FFFFFF" font-family="Verdana" text-anchor="middle" font-size="14px"><text x="924.79" y="817.5">S1@TA</text></g><g fill="#000000" font-family="Helvetica" clip-path="url(#mx-clip-895-831-62-26-0)" text-anchor="middle" font-size="14px"><text x="925.5" y="845.5">Point 'b6'</text></g><g fill="#000000" font-family="Helvetica" clip-path="url(#mx-clip-895-857-62-28-0)" text-anchor="middle" font-size="14px"><text x="925.5" y="871.5">S1@T9</text></g><path d="M 825.71 899.86 Q 825.71 838.43 885.06 838.43" fill="none" stroke="#000000" stroke-miterlimit="10" pointer-events="none"/><path d="M 890.31 838.43 L 883.31 841.93 L 885.06 838.43 L 883.31 834.93 Z" fill="#000000" stroke="#000000" stroke-miterlimit="10" pointer-events="none"/><rect x="791" y="900" width="70" height="80" rx="11.7" ry="11.7" fill="#ffffff" stroke="#ff3333" stroke-width="3" pointer-events="none"/><path d="M 861 926 L 861 911.7 Q 861 900 849.3 900 L 802.7 900 Q 791 900 791 911.7 L 791 926 Z" fill="#009900" stroke="#ff3333" stroke-width="3" stroke-miterlimit="10" pointer-events="none"/><g fill="#FFFFFF" font-family="Verdana" text-anchor="middle" font-size="14px"><text x="824.79" y="918.93">S1@TA</text></g><g fill="#000000" font-family="Helvetica" clip-path="url(#mx-clip-795-931-62-26-0)" text-anchor="middle" font-size="14px"><text x="825.5" y="945.5">Set Round</text></g><g fill="#000000" font-family="Helvetica" clip-path="url(#mx-clip-795-957-62-28-0)" text-anchor="middle" font-size="14px"><text x="825.5" y="971.5">S1@T9</text></g><path d="M 925.71 899.86 Q 925.71 879.86 925.71 886.37" fill="none" stroke="#000000" stroke-miterlimit="10" pointer-events="none"/><path d="M 925.71 881.12 L 929.21 888.12 L 925.71 886.37 L 922.21 888.12 Z" fill="#000000" stroke="#000000" stroke-miterlimit="10" pointer-events="none"/><rect x="891" y="900" width="70" height="80" rx="11.7" ry="11.7" fill="#ffffff" stroke="#ff3333" stroke-width="3" pointer-events="none"/><path d="M 961 926 L 961 911.7 Q 961 900 949.3 900 L 902.7 900 Q 891 900 891 911.7 L 891 926 Z" fill="#009900" stroke="#ff3333" stroke-width="3" stroke-miterlimit="10" pointer-events="none"/><g fill="#FFFFFF" font-family="Verdana" text-anchor="middle" font-size="14px"><text x="924.79" y="918.93">S1@TA</text></g><g fill="#000000" font-family="Helvetica" clip-path="url(#mx-clip-895-931-62-26-0)" text-anchor="middle" font-size="14px"><text x="925.5" y="945.5">Translate</text></g><g fill="#000000" font-family="Helvetica" clip-path="url(#mx-clip-895-957-62-28-0)" text-anchor="middle" font-size="14px"><text x="925.5" y="971.5">S1@T9</text></g><path d="M 785.71 298.43 Q 785.71 238.43 727.8 238.43" fill="none" stroke="#000000" stroke-miterlimit="10" pointer-events="none"/><path d="M 722.55 238.43 L 729.55 234.93 L 727.8 238.43 L 729.55 241.93 Z" fill="#000000" stroke="#000000" stroke-miterlimit="10" pointer-events="none"/><rect x="751" y="298" width="70" height="80" rx="11.7" ry="11.7" fill="#ffffff" stroke="#000000" pointer-events="none"/><path d="M 821 324 L 821 309.7 Q 821 298 809.3 298 L 762.7 298 Q 751 298 751 309.7 L 751 324 Z" fill="#009900" stroke="#000000" stroke-miterlimit="10" pointer-events="none"/><g fill="#FFFFFF" font-family="Verdana" text-anchor="middle" font-size="14px"><text x="784.79" y="315.5">S1@TA</text></g><g fill="#000000" font-family="Helvetica" clip-path="url(#mx-clip-755-329-62-26-0)" text-anchor="middle" font-size="14px"><text x="785.5" y="343.5">Point 'b1'</text></g><g fill="#000000" font-family="Helvetica" clip-path="url(#mx-clip-755-355-62-28-0)" text-anchor="middle" font-size="14px"><text x="785.5" y="369.5">S1@T9</text></g><path d="M 651.43 118.43 Q 441.43 118.43 441.43 142 Q 441.43 165.57 237.8 165.57" fill="none" stroke="#000000" stroke-miterlimit="10" pointer-events="none"/><path d="M 232.55 165.57 L 239.55 162.07 L 237.8 165.57 L 239.55 169.07 Z" fill="#000000" stroke="#000000" stroke-miterlimit="10" pointer-events="none"/><rect x="651" y="99" width="70" height="80" rx="11.7" ry="11.7" fill="#ffffff" stroke="#000000" pointer-events="none"/><path d="M 721 125 L 721 110.7 Q 721 99 709.3 99 L 662.7 99 Q 651 99 651 110.7 L 651 125 Z" fill="#009900" stroke="#000000" stroke-miterlimit="10" pointer-events="none"/><g fill="#FFFFFF" font-family="Verdana" text-anchor="middle" font-size="14px"><text x="684.79" y="116.5">S1@T8</text></g><g fill="#000000" font-family="Helvetica" clip-path="url(#mx-clip-655-130-62-26-0)" text-anchor="middle" font-size="14px"><text x="685.5" y="144.5">Shape 'B'</text></g><g fill="#000000" font-family="Helvetica" clip-path="url(#mx-clip-655-156-62-28-0)" text-anchor="middle" font-size="14px"><text x="685.5" y="170.5">S1@T1</text></g><rect x="651" y="199" width="70" height="80" rx="11.7" ry="11.7" fill="#ffffff" stroke="#000000" pointer-events="none"/><path d="M 721 225 L 721 210.7 Q 721 199 709.3 199 L 662.7 199 Q 651 199 651 210.7 L 651 225 Z" fill="#009900" stroke="#000000" stroke-miterlimit="10" pointer-events="none"/><g fill="#FFFFFF" font-family="Verdana" text-anchor="middle" font-size="14px"><text x="684.79" y="216.5">S1@T9</text></g><g fill="#000000" font-family="Helvetica" clip-path="url(#mx-clip-655-230-62-26-0)" text-anchor="middle" font-size="14px"><text x="685.5" y="244.5">ø</text></g><g fill="#000000" font-family="Helvetica" clip-path="url(#mx-clip-655-256-62-28-0)" text-anchor="middle" font-size="14px"><text x="685.5" y="270.5">S1@T8</text></g><path d="M 598.57 298.43 Q 598.57 238.43 644.63 238.43" fill="none" stroke="#000000" stroke-miterlimit="10" pointer-events="none"/><path d="M 649.88 238.43 L 642.88 241.93 L 644.63 238.43 L 642.88 234.93 Z" fill="#000000" stroke="#000000" stroke-miterlimit="10" pointer-events="none"/><rect x="581" y="298" width="70" height="80" rx="11.7" ry="11.7" fill="#ffffff" stroke="#ff3333" stroke-width="3" pointer-events="none"/><path d="M 651 324 L 651 309.7 Q 651 298 639.3 298 L 592.7 298 Q 581 298 581 309.7 L 581 324 Z" fill="#009900" stroke="#ff3333" stroke-width="3" stroke-miterlimit="10" pointer-events="none"/><g fill="#FFFFFF" font-family="Verdana" text-anchor="middle" font-size="14px"><text x="614.79" y="316.93">S1@TA</text></g><g fill="#000000" font-family="Helvetica" clip-path="url(#mx-clip-585-329-62-26-0)" text-anchor="middle" font-size="14px"><text x="615.5" y="343.5">Set Color</text></g><g fill="#000000" font-family="Helvetica" clip-path="url(#mx-clip-585-355-62-28-0)" text-anchor="middle" font-size="14px"><text x="615.5" y="369.5">S1@T9</text></g><path d="M 615.71 399.86 Q 615.71 379.86 615.71 384.37" fill="none" stroke="#000000" stroke-miterlimit="10" pointer-events="none"/><path d="M 615.71 379.12 L 619.21 386.12 L 615.71 384.37 L 612.21 386.12 Z" fill="#000000" stroke="#000000" stroke-miterlimit="10" pointer-events="none"/><rect x="581" y="400" width="70" height="80" rx="11.7" ry="11.7" fill="#ffffff" stroke="#ff3333" stroke-width="3" pointer-events="none"/><path d="M 651 426 L 651 411.7 Q 651 400 639.3 400 L 592.7 400 Q 581 400 581 411.7 L 581 426 Z" fill="#009900" stroke="#ff3333" stroke-width="3" stroke-miterlimit="10" pointer-events="none"/><g fill="#FFFFFF" font-family="Verdana" text-anchor="middle" font-size="14px"><text x="614.79" y="418.93">S1@TA</text></g><g fill="#000000" font-family="Helvetica" clip-path="url(#mx-clip-585-431-62-26-0)" text-anchor="middle" font-size="14px"><text x="615.5" y="445.5">Set Color</text></g><g fill="#000000" font-family="Helvetica" clip-path="url(#mx-clip-585-457-62-28-0)" text-anchor="middle" font-size="14px"><text x="615.5" y="471.5">S1@T9</text></g><path d="M 1025.71 898.43 Q 1025.71 838.43 967.8 838.43" fill="none" stroke="#000000" stroke-miterlimit="10" pointer-events="none"/><path d="M 962.55 838.43 L 969.55 834.93 L 967.8 838.43 L 969.55 841.93 Z" fill="#000000" stroke="#000000" stroke-miterlimit="10" pointer-events="none"/><rect x="991" y="899" width="70" height="80" rx="11.7" ry="11.7" fill="#ffffff" stroke="#000000" pointer-events="none"/><path d="M 1061 925 L 1061 910.7 Q 1061 899 1049.3 899 L 1002.7 899 Q 991 899 991 910.7 L 991 925 Z" fill="#009900" stroke="#000000" stroke-miterlimit="10" pointer-events="none"/><g fill="#FFFFFF" font-family="Verdana" text-anchor="middle" font-size="14px"><text x="1024.79" y="916.5">S1@TA</text></g><g fill="#000000" font-family="Helvetica" clip-path="url(#mx-clip-995-930-62-26-0)" text-anchor="middle" font-size="14px"><text x="1025.5" y="944.5">Point 'b7'</text></g><g fill="#000000" font-family="Helvetica" clip-path="url(#mx-clip-995-956-62-28-0)" text-anchor="middle" font-size="14px"><text x="1025.5" y="970.5">S1@T9</text></g><path d="M 1025.71 999.86 Q 1025.71 979.86 1025.71 984.46" fill="none" stroke="#000000" stroke-miterlimit="10" pointer-events="none"/><path d="M 1025.71 979.96 L 1028.71 985.96 L 1025.71 984.46 L 1022.71 985.96 Z" fill="#000000" stroke="#000000" stroke-miterlimit="10" pointer-events="none"/><rect x="991" y="1000" width="70" height="80" rx="11.7" ry="11.7" fill="#ffffff" stroke="#000000" pointer-events="none"/><path d="M 1061 1026 L 1061 1011.7 Q 1061 1000 1049.3 1000 L 1002.7 1000 Q 991 1000 991 1011.7 L 991 1026 Z" fill="#cc0066" stroke="#000000" stroke-miterlimit="10" pointer-events="none"/><g fill="#FFFFFF" font-family="Verdana" text-anchor="middle" font-size="14px"><text x="1024.79" y="1017.5">S1@TA</text></g><g fill="#000000" font-family="Helvetica" clip-path="url(#mx-clip-995-1031-62-26-0)" text-anchor="middle" font-size="14px"><text x="1025.5" y="1045.5">Point 'b8'</text></g><g fill="#000000" font-family="Helvetica" clip-path="url(#mx-clip-995-1057-62-28-0)" text-anchor="middle" font-size="14px"><text x="1025.5" y="1071.5">S1@T9</text></g><path d="M 1025.71 1099.86 Q 1025.71 1079.86 1025.71 1086.37" fill="none" stroke="#000000" stroke-miterlimit="10" pointer-events="none"/><path d="M 1025.71 1081.12 L 1029.21 1088.12 L 1025.71 1086.37 L 1022.21 1088.12 Z" fill="#000000" stroke="#000000" stroke-miterlimit="10" pointer-events="none"/><rect x="991" y="1100" width="70" height="80" rx="11.7" ry="11.7" fill="#ffffff" stroke="#ff3333" stroke-width="3" pointer-events="none"/><path d="M 1061 1126 L 1061 1111.7 Q 1061 1100 1049.3 1100 L 1002.7 1100 Q 991 1100 991 1111.7 L 991 1126 Z" fill="#0066cc" stroke="#ff3333" stroke-width="3" stroke-miterlimit="10" pointer-events="none"/><g fill="#FFFFFF" font-family="Verdana" text-anchor="middle" font-size="14px"><text x="1024.79" y="1118.93">S1@TA</text></g><g fill="#000000" font-family="Helvetica" clip-path="url(#mx-clip-995-1131-62-26-0)" text-anchor="middle" font-size="14px"><text x="1025.5" y="1145.5">Set Round</text></g><g fill="#000000" font-family="Helvetica" clip-path="url(#mx-clip-995-1157-62-28-0)" text-anchor="middle" font-size="14px"><text x="1025.5" y="1171.5">S1@T9</text></g><rect x="391" y="0" width="70" height="80" rx="11.7" ry="11.7" fill="#ffffff" stroke="#000000" pointer-events="none"/><path d="M 461 26 L 461 11.7 Q 461 0 449.3 0 L 402.7 0 Q 391 0 391 11.7 L 391 26 Z" fill="#009900" stroke="#000000" stroke-miterlimit="10" pointer-events="none"/><g fill="#FFFFFF" font-family="Verdana" text-anchor="middle" font-size="14px"><text x="424.79" y="17.5">S1@T1</text></g><g fill="#000000" font-family="Helvetica" clip-path="url(#mx-clip-395-31-62-26-0)" text-anchor="middle" font-size="14px"><text x="425.5" y="45.5">ø</text></g><g fill="#000000" font-family="Helvetica" clip-path="url(#mx-clip-395-57-62-28-0)" text-anchor="middle" font-size="14px"><text x="425.5" y="71.5">ø</text></g><rect x="161" y="99" width="70" height="80" rx="11.7" ry="11.7" fill="#ffffff" stroke="#000000" pointer-events="none"/><path d="M 231 125 L 231 110.7 Q 231 99 219.3 99 L 172.7 99 Q 161 99 161 110.7 L 161 125 Z" fill="#009900" stroke="#000000" stroke-miterlimit="10" pointer-events="none"/><g fill="#FFFFFF" font-family="Verdana" text-anchor="middle" font-size="14px"><text x="194.79" y="116.5">S1@T8</text></g><g fill="#000000" font-family="Helvetica" clip-path="url(#mx-clip-165-130-62-26-0)" text-anchor="middle" font-size="14px"><text x="195.5" y="144.5">Shape 'A'</text></g><g fill="#000000" font-family="Helvetica" clip-path="url(#mx-clip-165-156-62-28-0)" text-anchor="middle" font-size="14px"><text x="195.5" y="170.5">S1@T1</text></g><rect x="161" y="199" width="70" height="80" rx="11.7" ry="11.7" fill="#ffffff" stroke="#ff3333" stroke-width="3" pointer-events="none"/><path d="M 231 225 L 231 210.7 Q 231 199 219.3 199 L 172.7 199 Q 161 199 161 210.7 L 161 225 Z" fill="#009900" stroke="#ff3333" stroke-width="3" stroke-miterlimit="10" pointer-events="none"/><g fill="#FFFFFF" font-family="Verdana" text-anchor="middle" font-size="14px"><text x="194.79" y="217.93">S1@T9</text></g><g fill="#000000" font-family="Helvetica" clip-path="url(#mx-clip-165-230-62-26-0)" text-anchor="middle" font-size="14px"><text x="195.5" y="244.5">ø</text></g><g fill="#000000" font-family="Helvetica" clip-path="url(#mx-clip-165-256-62-28-0)" text-anchor="middle" font-size="14px"><text x="195.5" y="270.5">S1@T8</text></g><rect x="1" y="298" width="70" height="80" rx="11.7" ry="11.7" fill="#ffffff" stroke="#ff3333" stroke-width="3" pointer-events="none"/><path d="M 71 324 L 71 309.7 Q 71 298 59.3 298 L 12.7 298 Q 1 298 1 309.7 L 1 324 Z" fill="#009900" stroke="#ff3333" stroke-width="3" stroke-miterlimit="10" pointer-events="none"/><g fill="#FFFFFF" font-family="Verdana" text-anchor="middle" font-size="14px"><text x="34.79" y="316.93">S1@TA</text></g><g fill="#000000" font-family="Helvetica" clip-path="url(#mx-clip-5-329-62-26-0)" text-anchor="middle" font-size="14px"><text x="35.5" y="343.5">Set Color</text></g><g fill="#000000" font-family="Helvetica" clip-path="url(#mx-clip-5-355-62-28-0)" text-anchor="middle" font-size="14px"><text x="35.5" y="369.5">S1@T9</text></g></g></svg>