<!DOCTYPE svg PUBLIC "-//W3C//DTD SVG 1.1//EN" "http://www.w3.org/Graphics/SVG/1.1/DTD/svg11.dtd">
<svg xmlns="http://www.w3.org/2000/svg" xmlns:xlink="http://www.w3.org/1999/xlink" width="252px" height="284px" version="1.1"><defs><clipPath id="mx-clip-4-131-62-26-0"><rect x="4" y="131" width="62" height="26"/></clipPath><clipPath id="mx-clip-4-157-62-28-0"><rect x="4" y="157" width="62" height="28"/></clipPath><clipPath id="mx-clip-94-131-62-26-0"><rect x="94" y="131" width="62" height="26"/></clipPath><clipPath id="mx-clip-94-157-62-28-0"><rect x="94" y="157" width="62" height="28"/></clipPath><clipPath id="mx-clip-94-31-62-26-0"><rect x="94" y="31" width="62" height="26"/></clipPath><clipPath id="mx-clip-94-57-62-28-0"><rect x="94" y="57" width="62" height="28"/></clipPath><clipPath id="mx-clip-184-231-62-26-0"><rect x="184" y="231" width="62" height="26"/></clipPath><clipPath id="mx-clip-184-257-62-28-0"><rect x="184" y="257" width="62" height="28"/></clipPath><clipPath id="mx-clip-184-31-62-26-0"><rect x="184" y="31" width="62" height="26"/></clipPath><clipPath id="mx-clip-184-57-62-28-0"><rect x="184" y="57" width="62" height="28"/></clipPath><clipPath id="mx-clip-94-231-62-26-0"><rect x="94" y="231" width="62" height="26"/></clipPath><clipPath id="mx-clip-94-257-62-28-0"><rect x="94" y="257" width="62" height="28"/></clipPath><clipPath id="mx-clip-184-131-62-26-0"><rect x="184" y="131" width="62" height="26"/></clipPath><clipPath id="mx-clip-184-157-62-28-0"><rect x="184" y="157" width="62" height="28"/></clipPath></defs><g transform="translate(0.5,0.5)"><path d="M 179.83 145.67 Q 179.83 145.67 168.07 145.86" fill="none" stroke="#000000" stroke-width="2" stroke-miterlimit="10" pointer-events="none"/><path d="M 162.07 145.96 L 170 141.83 L 168.07 145.86 L 170.13 149.83 Z" fill="#000000" stroke="#000000" stroke-width="2" stroke-miterlimit="10" pointer-events="none"/><path d="M 89.83 145.67 Q 89.83 145.67 78.07 145.86" fill="none" stroke="#000000" stroke-width="2" stroke-miterlimit="10" pointer-events="none"/><path d="M 72.07 145.96 L 80 141.83 L 78.07 145.86 L 80.13 149.83 Z" fill="#000000" stroke="#000000" stroke-width="2" stroke-miterlimit="10" pointer-events="none"/><path d="M 124.83 200.17 Q 124.83 200.17 124.83 188.4" fill="none" stroke="#000000" stroke-width="2" stroke-miterlimit="10" pointer-events="none"/><path d="M 124.83 182.4 L 128.83 190.4 L 124.83 188.4 L 120.83 190.4 Z" fill="#000000" stroke="#000000" stroke-width="2" stroke-miterlimit="10" pointer-events="none"/><path d="M 214.83 200.17 Q 214.83 200.17 214.83 188.4" fill="none" stroke="#000000" stroke-width="2" stroke-miterlimit="10" pointer-events="none"/><path d="M 214.83 182.4 L 218.83 190.4 L 214.83 188.4 L 210.83 190.4 Z" fill="#000000" stroke="#000000" stroke-width="2" stroke-miterlimit="10" pointer-events="none"/><path d="M 124.83 91.93 Q 124.83 91.93 124.83 80.17" fill="none" stroke="#000000" stroke-width="2" stroke-miterlimit="10" pointer-events="none"/><path d="M 124.83 97.93 L 120.83 89.93 L 124.83 91.93 L 128.83 89.93 Z" fill="#000000" stroke="#000000" stroke-width="2" stroke-miterlimit="10" pointer-events="none"/><path d="M 214.83 91.93 Q 214.83 91.93 214.83 80.17" fill="none" stroke="#000000" stroke-width="2" stroke-miterlimit="10" pointer-events="none"/><path d="M 214.83 97.93 L 210.83 89.93 L 214.83 91.93 L 218.83 89.93 Z" fill="#000000" stroke="#000000" stroke-width="2" stroke-miterlimit="10" pointer-events="none"/><rect x="0" y="100" width="70" height="80" rx="11.7" ry="11.7" fill="#ffffff" stroke="#000000" pointer-events="none"/><path d="M 70 126 L 70 111.7 Q 70 100 58.3 100 L 11.7 100 Q 0 100 0 111.7 L 0 126 Z" fill="#009900" stroke="#000000" stroke-miterlimit="10" pointer-events="none"/><g fill="#FFFFFF" font-family="Verdana" text-anchor="middle" font-size="14px"><text x="34.5" y="118.33">S1@T1</text></g><g fill="#000000" font-family="Helvetica" clip-path="url(#mx-clip-4-131-62-26-0)" text-anchor="middle" font-size="14px"><text x="34.5" y="145.5">Insert 'A'</text></g><g fill="#000000" font-family="Helvetica" clip-path="url(#mx-clip-4-157-62-28-0)" text-anchor="middle" font-size="14px"><text x="34.5" y="171.5">ø</text></g><rect x="90" y="100" width="70" height="80" rx="11.7" ry="11.7" fill="#ffffff" stroke="#000000" pointer-events="none"/><path d="M 160 126 L 160 111.7 Q 160 100 148.3 100 L 101.7 100 Q 90 100 90 111.7 L 90 126 Z" fill="#009900" stroke="#000000" stroke-miterlimit="10" pointer-events="none"/><g fill="#FFFFFF" font-family="Verdana" text-anchor="middle" font-size="14px"><text x="124.5" y="118.33">S1@T2</text></g><g fill="#000000" font-family="Helvetica" clip-path="url(#mx-clip-94-131-62-26-0)" text-anchor="middle" font-size="14px"><text x="124.5" y="145.5">Insert 'B'</text></g><g fill="#000000" font-family="Helvetica" clip-path="url(#mx-clip-94-157-62-28-0)" text-anchor="middle" font-size="14px"><text x="124.5" y="171.5">S1@T1</text></g><rect x="90" y="0" width="70" height="80" rx="11.7" ry="11.7" fill="#ffffff" stroke="#000000" pointer-events="none"/><path d="M 160 26 L 160 11.7 Q 160 0 148.3 0 L 101.7 0 Q 90 0 90 11.7 L 90 26 Z" fill="#0066cc" stroke="#000000" stroke-miterlimit="10" pointer-events="none"/><g fill="#FFFFFF" font-family="Verdana" text-anchor="middle" font-size="14px"><text x="124.5" y="18.33">S2@T5</text></g><g fill="#000000" font-family="Helvetica" clip-path="url(#mx-clip-94-31-62-26-0)" text-anchor="middle" font-size="14px"><text x="124.5" y="45.5">Delete</text></g><g fill="#000000" font-family="Helvetica" clip-path="url(#mx-clip-94-57-62-28-0)" text-anchor="middle" font-size="14px"><text x="124.5" y="71.5">S1@T2</text></g><rect x="180" y="200" width="70" height="80" rx="11.7" ry="11.7" fill="#ffffff" stroke="#000000" pointer-events="none"/><path d="M 250 226 L 250 211.7 Q 250 200 238.3 200 L 191.7 200 Q 180 200 180 211.7 L 180 226 Z" fill="#cc0066" stroke="#000000" stroke-miterlimit="10" pointer-events="none"/><g fill="#FFFFFF" font-family="Verdana" text-anchor="middle" font-size="14px"><text x="214.5" y="218.33">S3@T7</text></g><g fill="#000000" font-family="Helvetica" clip-path="url(#mx-clip-184-231-62-26-0)" text-anchor="middle" font-size="14px"><text x="214.5" y="245.5">Delete</text></g><g fill="#000000" font-family="Helvetica" clip-path="url(#mx-clip-184-257-62-28-0)" text-anchor="middle" font-size="14px"><text x="214.5" y="271.5">S1@T3</text></g><rect x="180" y="0" width="70" height="80" rx="11.7" ry="11.7" fill="#ffffff" stroke="#000000" pointer-events="none"/><path d="M 250 26 L 250 11.7 Q 250 0 238.3 0 L 191.7 0 Q 180 0 180 11.7 L 180 26 Z" fill="#0066cc" stroke="#000000" stroke-miterlimit="10" pointer-events="none"/><g fill="#FFFFFF" font-family="Verdana" text-anchor="middle" font-size="14px"><text x="214.5" y="18.33">S2@T6</text></g><g fill="#000000" font-family="Helvetica" clip-path="url(#mx-clip-184-31-62-26-0)" text-anchor="middle" font-size="14px"><text x="214.5" y="45.5">Insert 'D'</text></g><g fill="#000000" font-family="Helvetica" clip-path="url(#mx-clip-184-57-62-28-0)" text-anchor="middle" font-size="14px"><text x="214.5" y="71.5">S1@T3</text></g><rect x="90" y="200" width="70" height="80" rx="11.7" ry="11.7" fill="#ffffff" stroke="#000000" pointer-events="none"/><path d="M 160 226 L 160 211.7 Q 160 200 148.3 200 L 101.7 200 Q 90 200 90 211.7 L 90 226 Z" fill="#cc0066" stroke="#000000" stroke-miterlimit="10" pointer-events="none"/><g fill="#FFFFFF" font-family="Verdana" text-anchor="middle" font-size="14px"><text x="124.5" y="218.33">S3@T6</text></g><g fill="#000000" font-family="Helvetica" clip-path="url(#mx-clip-94-231-62-26-0)" text-anchor="middle" font-size="14px"><text x="124.5" y="245.5">Insert 'E'</text></g><g fill="#000000" font-family="Helvetica" clip-path="url(#mx-clip-94-257-62-28-0)" text-anchor="middle" font-size="14px"><text x="124.5" y="271.5">S1@T2</text></g><rect x="180" y="100" width="70" height="80" rx="11.7" ry="11.7" fill="#ffffff" stroke="#000000" pointer-events="none"/><path d="M 250 126 L 250 111.7 Q 250 100 238.3 100 L 191.7 100 Q 180 100 180 111.7 L 180 126 Z" fill="#009900" stroke="#000000" stroke-miterlimit="10" pointer-events="none"/><g fill="#FFFFFF" font-family="Verdana" text-anchor="middle" font-size="14px"><text x="214.5" y="118.33">S1@T3</text></g><g fill="#000000" font-family="Helvetica" clip-path="url(#mx-clip-184-131-62-26-0)" text-anchor="middle" font-size="14px"><text x="214.5" y="145.5">Insert 'C'</text></g><g fill="#000000" font-family="Helvetica" clip-path="url(#mx-clip-184-157-62-28-0)" text-anchor="middle" font-size="14px"><text x="214.5" y="171.5">S1@T2</text></g></g></svg>