<!DOCTYPE svg PUBLIC "-//W3C//DTD SVG 1.1//EN" "http://www.w3.org/Graphics/SVG/1.1/DTD/svg11.dtd">
<svg xmlns="http://www.w3.org/2000/svg" xmlns:xlink="http://www.w3.org/1999/xlink" width="312px" height="592px" version="1.1"><defs/><g transform="translate(0.5,0.5)"><ellipse cx="141" cy="381" rx="30" ry="40" fill="#ff6666" stroke="#000000" stroke-width="2" pointer-events="none"/><ellipse cx="31" cy="211" rx="30" ry="40" fill="#ff6666" stroke="#000000" stroke-width="2" pointer-events="none"/><ellipse cx="155" cy="551" rx="30" ry="40" fill="#ff6666" stroke="#000000" stroke-width="2" pointer-events="none"/><rect x="155" y="511" width="60" height="80" fill="#c3abd0" stroke="#000000" stroke-width="2" pointer-events="none"/><rect x="125" y="491" width="50" height="60" fill="#b9e0a5" stroke="#000000" stroke-width="2" pointer-events="none"/><path d="M 175 551 L 215 551 L 215 576.5 Q 205 568.4 195 576.5 Q 185 584.6 175 576.5 L 175 555.5 Z" fill="#99ccff" stroke="#000000" stroke-width="2" stroke-miterlimit="10" pointer-events="none"/><ellipse cx="195" cy="531" rx="15" ry="15" fill="#ffd966" stroke="#000000" stroke-width="2" pointer-events="none"/><path d="M 175 491 L 215 511 L 175 531 Z" fill="#fff4c3" stroke="#000000" stroke-width="2" stroke-miterlimit="10" pointer-events="none"/><path d="M 171 81 Q 171 113 111 113 Q 51 113 51 138.63" fill="none" stroke="#000000" stroke-miterlimit="10" pointer-events="none"/><path d="M 51 143.88 L 47.5 136.88 L 51 138.63 L 54.5 136.88 Z" fill="#000000" stroke="#000000" stroke-miterlimit="10" pointer-events="none"/><path d="M 171 81 Q 171 81 171 138.63" fill="none" stroke="#000000" stroke-miterlimit="10" pointer-events="none"/><path d="M 171 143.88 L 167.5 136.88 L 171 138.63 L 174.5 136.88 Z" fill="#000000" stroke="#000000" stroke-miterlimit="10" pointer-events="none"/><path d="M 171 81 Q 171 113 231 113 Q 291 113 291 138.63" fill="none" stroke="#000000" stroke-miterlimit="10" pointer-events="none"/><path d="M 291 143.88 L 287.5 136.88 L 291 138.63 L 294.5 136.88 Z" fill="#000000" stroke="#000000" stroke-miterlimit="10" pointer-events="none"/><rect x="141" y="1" width="60" height="80" fill="#c3abd0" stroke="#000000" stroke-width="2" pointer-events="none"/><ellipse cx="161" cy="60" rx="15" ry="15" fill="#9999ff" stroke="#000000" stroke-width="2" pointer-events="none"/><ellipse cx="161" cy="22" rx="15" ry="15" fill="#9999ff" stroke="#000000" stroke-width="2" pointer-events="none"/><path d="M 171 251 Q 171 283 116 283 Q 61 283 61 308.63" fill="none" stroke="#000000" stroke-miterlimit="10" pointer-events="none"/><path d="M 61 313.88 L 57.5 306.88 L 61 308.63 L 64.5 306.88 Z" fill="#000000" stroke="#000000" stroke-miterlimit="10" pointer-events="none"/><path d="M 171 251 Q 171 283 226 283 Q 281 283 281 308.63" fill="none" stroke="#000000" stroke-miterlimit="10" pointer-events="none"/><path d="M 281 313.88 L 277.5 306.88 L 281 308.63 L 284.5 306.88 Z" fill="#000000" stroke="#000000" stroke-miterlimit="10" pointer-events="none"/><rect x="141" y="171" width="60" height="80" fill="#c3abd0" stroke="#000000" stroke-width="2" pointer-events="none"/><ellipse cx="161" cy="230" rx="15" ry="15" fill="#9999ff" stroke="#000000" stroke-width="2" pointer-events="none"/><path d="M 61 251 Q 61 283 61.27 308.63" fill="none" stroke="#000000" stroke-miterlimit="10" pointer-events="none"/><path d="M 61.32 313.88 L 57.75 306.92 L 61.27 308.63 L 64.75 306.85 Z" fill="#000000" stroke="#000000" stroke-miterlimit="10" pointer-events="none"/><path d="M 61 251 Q 61 273 116 273 Q 171 273 171 295" fill="none" stroke="#000000" stroke-miterlimit="10" pointer-events="none"/><rect x="31" y="171" width="60" height="80" fill="#c3abd0" stroke="#000000" stroke-width="2" pointer-events="none"/><ellipse cx="51" cy="192" rx="15" ry="15" fill="#9999ff" stroke="#000000" stroke-width="2" pointer-events="none"/><path d="M 281 251 Q 281 273 226 273 Q 171 273 171 295" fill="none" stroke="#000000" stroke-miterlimit="10" pointer-events="none"/><path d="M 281 251 Q 281 283 281.27 308.63" fill="none" stroke="#000000" stroke-miterlimit="10" pointer-events="none"/><path d="M 281.32 313.88 L 277.75 306.92 L 281.27 308.63 L 284.75 306.85 Z" fill="#000000" stroke="#000000" stroke-miterlimit="10" pointer-events="none"/><rect x="251" y="171" width="60" height="80" fill="#c3abd0" stroke="#000000" stroke-width="2" pointer-events="none"/><ellipse cx="271" cy="230" rx="15" ry="15" fill="#9999ff" stroke="#000000" stroke-width="2" pointer-events="none"/><ellipse cx="271" cy="192" rx="15" ry="15" fill="#ffd966" stroke="#000000" stroke-width="2" pointer-events="none"/><ellipse cx="181" cy="191" rx="15" ry="15" fill="#9999ff" stroke="#000000" stroke-width="2" pointer-events="none"/><path d="M 271 211 L 311 211 L 311 236.5 Q 301 228.4 291 236.5 Q 281 244.6 271 236.5 L 271 215.5 Z" fill="#99ccff" stroke="#000000" stroke-width="2" stroke-miterlimit="10" pointer-events="none"/><path d="M 51 151 L 91 171 L 51 191 Z" fill="#fff4c3" stroke="#000000" stroke-width="2" stroke-miterlimit="10" pointer-events="none"/><rect x="111" y="151" width="50" height="60" fill="#b9e0a5" stroke="#000000" stroke-width="2" pointer-events="none"/><ellipse cx="31" cy="381" rx="30" ry="40" fill="#ff6666" stroke="#000000" stroke-width="2" pointer-events="none"/><path d="M 171 421 Q 171 453 151 453 Q 131 453 131 478.63" fill="none" stroke="#000000" stroke-miterlimit="10" pointer-events="none"/><path d="M 131 483.88 L 127.5 476.88 L 131 478.63 L 134.5 476.88 Z" fill="#000000" stroke="#000000" stroke-miterlimit="10" pointer-events="none"/><path d="M 171 421 Q 171 453 191 453 Q 211 453 211 478.63" fill="none" stroke="#000000" stroke-miterlimit="10" pointer-events="none"/><path d="M 211 483.88 L 207.5 476.88 L 211 478.63 L 214.5 476.88 Z" fill="#000000" stroke="#000000" stroke-miterlimit="10" pointer-events="none"/><rect x="141" y="341" width="60" height="80" fill="#c3abd0" stroke="#000000" stroke-width="2" pointer-events="none"/><path d="M 61 421 Q 61 453 96 453 Q 131 453 131 478.63" fill="none" stroke="#000000" stroke-miterlimit="10" pointer-events="none"/><path d="M 131 483.88 L 127.5 476.88 L 131 478.63 L 134.5 476.88 Z" fill="#000000" stroke="#000000" stroke-miterlimit="10" pointer-events="none"/><path d="M 61 421 Q 61 443 116 443 Q 171 443 171 465" fill="none" stroke="#000000" stroke-miterlimit="10" pointer-events="none"/><rect x="31" y="341" width="60" height="80" fill="#c3abd0" stroke="#000000" stroke-width="2" pointer-events="none"/><path d="M 281 421 Q 281 453 246 453 Q 211 453 211 478.63" fill="none" stroke="#000000" stroke-miterlimit="10" pointer-events="none"/><path d="M 211 483.88 L 207.5 476.88 L 211 478.63 L 214.5 476.88 Z" fill="#000000" stroke="#000000" stroke-miterlimit="10" pointer-events="none"/><path d="M 281 421 Q 281 443 226 443 Q 171 443 171 465" fill="none" stroke="#000000" stroke-miterlimit="10" pointer-events="none"/><rect x="251" y="341" width="60" height="80" fill="#c3abd0" stroke="#000000" stroke-width="2" pointer-events="none"/><ellipse cx="271" cy="400" rx="15" ry="15" fill="#9999ff" stroke="#000000" stroke-width="2" pointer-events="none"/><path d="M 271 381 L 311 381 L 311 406.5 Q 301 398.4 291 406.5 Q 281 414.6 271 406.5 L 271 385.5 Z" fill="#99ccff" stroke="#000000" stroke-width="2" stroke-miterlimit="10" pointer-events="none"/><ellipse cx="71" cy="361" rx="15" ry="15" fill="#9999ff" stroke="#000000" stroke-width="2" pointer-events="none"/><path d="M 51 321 L 91 341 L 51 361 Z" fill="#fff4c3" stroke="#000000" stroke-width="2" stroke-miterlimit="10" pointer-events="none"/><rect x="1" y="321" width="50" height="60" fill="#b9e0a5" stroke="#000000" stroke-width="2" pointer-events="none"/><ellipse cx="161" cy="362" rx="15" ry="15" fill="#ffd966" stroke="#000000" stroke-width="2" pointer-events="none"/><path d="M 161 321 L 201 341 L 161 361 Z" fill="#fff4c3" stroke="#000000" stroke-width="2" stroke-miterlimit="10" pointer-events="none"/><path d="M 161 381 L 201 381 L 201 406.5 Q 191 398.4 181 406.5 Q 171 414.6 161 406.5 L 161 385.5 Z" fill="#99ccff" stroke="#000000" stroke-width="2" stroke-miterlimit="10" pointer-events="none"/><ellipse cx="291" cy="361" rx="15" ry="15" fill="#ffd966" stroke="#000000" stroke-width="2" pointer-events="none"/><rect x="221" y="321" width="50" height="60" fill="#b9e0a5" stroke="#000000" stroke-width="2" pointer-events="none"/><path d="M 171 295 L 171 308.63" fill="none" stroke="#000000" stroke-miterlimit="10" pointer-events="none"/><path d="M 171 313.88 L 167.5 306.88 L 171 308.63 L 174.5 306.88 Z" fill="#000000" stroke="#000000" stroke-miterlimit="10" pointer-events="none"/><path d="M 171 465 L 171 478.63" fill="none" stroke="#000000" stroke-miterlimit="10" pointer-events="none"/><path d="M 171 483.88 L 167.5 476.88 L 171 478.63 L 174.5 476.88 Z" fill="#000000" stroke="#000000" stroke-miterlimit="10" pointer-events="none"/></g></svg>