<?xml version="1.0" encoding="UTF-8" standalone="no"?>
<!DOCTYPE svg PUBLIC "-//W3C//DTD SVG 1.1//EN" "http://www.w3.org/Graphics/SVG/1.1/DTD/svg11.dtd">
<svg width="100%" height="100%" viewBox="0 0 16 16" version="1.1" xmlns="http://www.w3.org/2000/svg" xmlns:xlink="http://www.w3.org/1999/xlink" xml:space="preserve" style="fill-rule:evenodd;clip-rule:evenodd;stroke-linejoin:round;stroke-miterlimit:1.41421;">
    <path d="M7.999,0.431C3.714,0.431 0.239,3.905 0.239,8.192C0.239,11.62 2.462,14.529 5.546,15.555C5.934,15.626 6.076,15.387 6.076,15.181C6.076,14.997 6.069,14.509 6.066,13.861C3.907,14.33 3.452,12.821 3.452,12.821C3.099,11.925 2.59,11.686 2.59,11.686C1.885,11.205 2.643,11.214 2.643,11.214C3.422,11.269 3.832,12.014 3.832,12.014C4.524,13.2 5.648,12.857 6.09,12.659C6.161,12.157 6.361,11.816 6.583,11.622C4.86,11.425 3.049,10.76 3.049,7.786C3.049,6.939 3.351,6.246 3.848,5.704C3.768,5.507 3.501,4.718 3.924,3.65C3.924,3.65 4.576,3.441 6.058,4.446C6.677,4.273 7.34,4.187 8,4.184C8.659,4.187 9.323,4.273 9.943,4.445C11.425,3.441 12.075,3.649 12.075,3.649C12.498,4.717 12.232,5.506 12.152,5.703C12.649,6.245 12.95,6.938 12.95,7.785C12.95,10.766 11.136,11.422 9.407,11.614C9.686,11.854 9.934,12.327 9.934,13.051C9.934,14.088 9.924,14.925 9.924,15.18C9.924,15.388 10.064,15.629 10.458,15.553C13.539,14.525 15.76,11.618 15.76,8.191C15.76,3.906 12.285,0.431 7.999,0.431Z" style="fill:rgb(68,68,68);fill-rule:nonzero;"/>
</svg>
