<?xml version="1.0" encoding="UTF-8" standalone="no"?>
<!DOCTYPE svg PUBLIC "-//W3C//DTD SVG 1.1//EN" "http://www.w3.org/Graphics/SVG/1.1/DTD/svg11.dtd">
<svg width="100%" height="100%" viewBox="0 0 30 30" version="1.1" xmlns="http://www.w3.org/2000/svg" xmlns:xlink="http://www.w3.org/1999/xlink" xml:space="preserve" style="fill-rule:evenodd;clip-rule:evenodd;stroke-linejoin:round;stroke-miterlimit:1.41421;">
    <path d="M28.78,5.1C28.012,3.117 26.443,1.548 24.46,0.78C23.311,0.349 22.097,0.115 20.87,0.09C19.29,0.02 18.79,0 14.78,0C10.77,0 10.26,0 8.69,0.09C7.463,0.115 6.249,0.349 5.1,0.78C3.117,1.548 1.548,3.117 0.78,5.1C0.349,6.249 0.115,7.463 0.09,8.69C0.02,10.27 0,10.77 0,14.78C0,18.79 0,19.3 0.09,20.87C0.115,22.097 0.349,23.311 0.78,24.46C1.548,26.443 3.117,28.012 5.1,28.78C6.246,29.228 7.46,29.479 8.69,29.52C10.27,29.59 10.77,29.61 14.78,29.61C18.79,29.61 19.3,29.61 20.87,29.52C22.097,29.495 23.311,29.261 24.46,28.83C26.443,28.062 28.012,26.493 28.78,24.51C29.211,23.361 29.445,22.147 29.47,20.92C29.54,19.34 29.56,18.84 29.56,14.83C29.56,10.82 29.56,10.31 29.47,8.74C29.45,7.496 29.217,6.265 28.78,5.1L28.78,5.1ZM26.8,20.75C26.87,19.179 26.87,18.748 26.87,14.75C26.87,10.75 26.85,10.31 26.78,8.75C26.768,7.814 26.595,6.887 26.27,6.01C25.772,4.719 24.751,3.698 23.46,3.2C22.583,2.875 21.656,2.702 20.72,2.69C19.13,2.6 18.72,2.6 14.72,2.6C10.72,2.6 10.28,2.62 8.72,2.69C7.784,2.702 6.857,2.875 5.98,3.2C4.685,3.694 3.659,4.716 3.16,6.01C2.831,6.897 2.659,7.834 2.65,8.78C2.56,10.37 2.56,10.78 2.56,14.78C2.56,18.78 2.58,19.22 2.65,20.78C2.662,21.716 2.835,22.643 3.16,23.52C3.659,24.814 4.685,25.836 5.98,26.33C6.857,26.655 7.784,26.828 8.72,26.84C10.31,26.93 10.72,26.93 14.72,26.93C18.72,26.93 19.16,26.91 20.72,26.84C21.656,26.828 22.583,26.655 23.46,26.33C24.751,25.832 25.772,24.811 26.27,23.52C26.599,22.634 26.771,21.698 26.78,20.75L26.8,20.75ZM14.77,7.18C18.935,7.182 22.36,10.607 22.36,14.77C22.36,18.934 18.934,22.36 14.77,22.36C10.606,22.36 7.18,18.934 7.18,14.77C7.18,10.607 10.605,7.182 14.77,7.18ZM14.77,19.7C12.065,19.7 9.84,17.475 9.84,14.77C9.84,12.065 12.065,9.84 14.77,9.84C17.475,9.84 19.7,12.065 19.7,14.77C19.7,17.475 17.475,19.7 14.77,19.7L14.77,19.7ZM22.66,5.13C23.637,5.13 24.43,5.923 24.43,6.9C24.43,7.877 23.637,8.67 22.66,8.67C21.683,8.67 20.89,7.877 20.89,6.9C20.89,5.923 21.683,5.13 22.66,5.13Z" style="fill:url(#_Linear1);"/>
    <defs>
        <linearGradient id="_Linear1" x1="0" y1="0" x2="1" y2="0" gradientUnits="userSpaceOnUse" gradientTransform="matrix(26.6185,-27.1971,27.1971,26.6185,1.1091,28.4036)"><stop offset="0" style="stop-color:rgb(231,3,40);stop-opacity:1"/><stop offset="1" style="stop-color:rgb(81,0,169);stop-opacity:1"/></linearGradient>
    </defs>
</svg>
