<?xml version="1.0" encoding="UTF-8" standalone="no"?>
<!DOCTYPE svg PUBLIC "-//W3C//DTD SVG 1.1//EN" "http://www.w3.org/Graphics/SVG/1.1/DTD/svg11.dtd">
<svg width="100%" height="100%" viewBox="0 0 16 16" version="1.1" xmlns="http://www.w3.org/2000/svg" xmlns:xlink="http://www.w3.org/1999/xlink" xml:space="preserve" style="fill-rule:evenodd;clip-rule:evenodd;stroke-linejoin:round;stroke-miterlimit:1.41421;">
    <path d="M15.969,3.058C15.383,3.318 14.752,3.494 14.091,3.573C14.766,3.168 15.285,2.528 15.529,1.764C14.897,2.139 14.197,2.411 13.453,2.557C12.857,1.921 12.007,1.524 11.066,1.524C9.26,1.524 7.796,2.988 7.796,4.794C7.796,5.05 7.825,5.3 7.881,5.539C5.163,5.404 2.753,4.102 1.14,2.124C0.859,2.607 0.698,3.168 0.698,3.767C0.698,4.901 1.275,5.902 2.153,6.489C1.616,6.472 1.112,6.325 0.671,6.08C0.671,6.094 0.671,6.107 0.671,6.121C0.671,7.705 1.798,9.027 3.294,9.327C3.02,9.402 2.731,9.442 2.433,9.442C2.222,9.442 2.017,9.421 1.818,9.383C2.234,10.682 3.442,11.628 4.873,11.654C3.754,12.531 2.344,13.054 0.812,13.054C0.548,13.054 0.288,13.039 0.032,13.008C1.479,13.936 3.198,14.477 5.045,14.477C11.06,14.477 14.349,9.494 14.349,5.173C14.349,5.031 14.346,4.89 14.34,4.75C14.976,4.29 15.531,3.714 15.969,3.058Z" style="fill:rgb(5,159,245);fill-rule:nonzero;"/>
</svg>
