<?xml version="1.0" encoding="UTF-8"?>
<!-- Generated by Pixelmator Pro 3.8 -->
<svg width="100" height="100" viewBox="0 0 100 100" xmlns="http://www.w3.org/2000/svg">
    <path id="Bluesky" fill="#000000" stroke="none" d="M 21 100 C 9.40202 100 0 90.597977 0 79 L 0 21 C 0 9.402023 9.40202 0 21 0 L 79 0 C 90.597977 0 100 9.402023 100 21 L 100 79 C 100 90.597977 90.597977 100 79 100 L 21 100 Z M 49.886379 48.866238 C 46.835251 42.554844 38.524937 30.794296 30.798824 24.994011 L 30.798428 24.994011 C 25.223906 20.808762 16.191128 17.570457 16.191128 27.874924 C 16.191128 29.932632 17.371004 45.162479 18.063051 47.635216 C 20.468166 56.231342 29.233709 58.423843 37.030933 57.096848 C 23.401711 59.415981 19.934742 67.099808 27.422436 74.783157 C 41.643368 89.375542 47.861729 71.122627 49.455292 66.445007 L 49.455383 66.444733 C 49.747486 65.587288 49.884159 65.186157 49.886181 65.527252 C 49.888191 65.186172 50.024876 65.587296 50.316975 66.444733 L 50.31768 66.4468 C 51.912926 71.127304 58.13163 89.373207 72.349922 74.783157 C 79.837502 67.099808 76.370422 59.416447 62.741432 57.096848 C 70.538422 58.423843 79.303841 56.231354 81.709305 47.635216 C 82.401329 45.162708 83.581238 29.932869 83.581238 27.874924 C 83.581238 17.570457 74.548691 20.808762 68.97393 24.994011 C 61.247589 30.794182 52.937737 42.555309 49.886379 48.866238 Z"/>
</svg>
