<?xml version="1.0" encoding="UTF-8"?>
<!-- Generated by Pixelmator Pro 3.8 -->
<svg width="100" height="100" viewBox="0 0 100 100" xmlns="http://www.w3.org/2000/svg">
    <path id="Shape" fill="#000000" stroke="none" d="M 21 100 C 9.40202 100 0 90.597977 0 79 L 0 21 C 0 9.402023 9.40202 0 21 0 L 79 0 C 90.597977 0 100 9.402023 100 21 L 100 79 C 100 90.597977 90.597977 100 79 100 L 21 100 Z M 29.625 81.25 C 35.631096 81.25 40.5 76.381096 40.5 70.375 C 40.5 64.368904 35.631096 59.5 29.625 59.5 C 23.618902 59.5 18.75 64.368904 18.75 70.375 C 18.75 76.381096 23.618902 81.25 29.625 81.25 Z M 51.375 81.25 L 62.25 81.25 C 62.25 57.225616 42.774387 37.75 18.75 37.75 L 18.75 48.625 C 36.768288 48.625 51.375 63.231712 51.375 81.25 Z M 18.75 26.875 C 48.780483 26.875 73.125 51.219517 73.125 81.25 L 84 81.25 C 84 45.213421 54.786579 16 18.75 16 L 18.75 26.875 Z"/>
</svg>
