<?xml version="1.0" encoding="UTF-8"?>
<!-- Generated by Pixelmator Pro 3.8 -->
<svg width="100" height="100" viewBox="0 0 100 100" xmlns="http://www.w3.org/2000/svg">
    <path id="Mastodon" fill="#000000" stroke="none" d="M 21 100 C 9.40202 100 0 90.597977 0 79 L 0 21 C 0 9.402023 9.40202 0 21 0 L 79 0 C 90.597977 0 100 9.402023 100 21 L 100 79 C 100 90.597977 90.597977 100 79 100 L 21 100 Z M 67.513382 15.904594 C 66.181847 15.70961 61.136829 15 49.450092 15 L 49.362816 15 C 37.67292 15 35.164928 15.70961 33.833393 15.904594 C 26.160738 17.02655 19.153913 22.377388 17.453911 30.023232 C 16.63623 33.788643 16.548969 37.963223 16.700871 41.792557 C 16.91741 47.284065 16.959425 52.765926 17.463608 58.235069 C 17.812162 61.867939 18.420208 65.47187 19.28319 69.019814 C 20.899157 75.57254 27.440609 81.025642 33.849533 83.250427 C 40.711254 85.570518 48.090424 85.955605 55.160965 84.36277 C 55.938721 84.183807 56.707996 83.975975 57.468525 83.739471 C 59.1847 83.199303 61.198231 82.595123 62.678448 81.53389 C 62.698734 81.519012 62.715416 81.499817 62.727139 81.477631 C 62.738861 81.455544 62.745441 81.431015 62.74625 81.406036 L 62.74625 76.1064 C 62.745892 76.083046 62.740303 76.060059 62.729843 76.039139 C 62.719292 76.018219 62.704235 75.999825 62.685574 75.985489 C 62.667 75.971069 62.645359 75.960968 62.622368 75.955826 C 62.599285 75.950783 62.575394 75.950867 62.552399 75.9561 C 58.0224 77.026344 53.380325 77.56282 48.722923 77.554344 C 40.707737 77.554344 38.552013 73.792175 37.934666 72.225853 C 37.438496 70.872223 37.123371 69.460258 36.997414 68.025757 C 36.996151 68.001686 37.00066 67.977615 37.010487 67.955521 C 37.020313 67.933517 37.035374 67.914047 37.054214 67.898804 C 37.073151 67.883568 37.095421 67.872932 37.119225 67.86779 C 37.143028 67.862564 37.167732 67.863098 37.191357 67.869141 C 41.645889 68.932083 46.212227 69.468552 50.794613 69.467384 C 51.896683 69.467384 52.995506 69.467384 54.097668 69.438622 C 58.706383 69.310768 63.56395 69.077423 68.098366 68.201576 C 68.211517 68.179214 68.324585 68.160011 68.4216 68.131248 C 75.57383 66.772751 82.380287 62.508736 83.07193 51.711102 C 83.097809 51.28598 83.162453 47.258461 83.162453 46.817379 C 83.163101 46.518818 83.182846 45.917393 83.209641 45.101238 C 83.31739 41.819263 83.539146 35.06501 83.091316 30.569893 C 82.063629 23.013481 75.405769 17.05851 67.513382 15.904594 Z M 64.562691 57.51268 L 72.083328 57.51268 L 72.089821 38.739979 C 72.089821 34.902077 71.099823 31.854813 69.119652 29.598106 C 67.070587 27.34465 64.39138 26.187576 61.068939 26.187576 C 57.226166 26.187576 54.317394 27.651482 52.378246 30.576294 L 50.503746 33.683243 L 48.632401 30.576294 C 46.693249 27.651482 43.784481 26.187576 39.935303 26.187576 C 36.609619 26.187576 33.930317 27.34465 31.887751 29.598106 C 29.907667 31.856979 28.91758 34.904243 28.91758 38.739979 L 28.91758 57.51268 L 36.431816 57.51268 L 36.431816 39.292953 C 36.435062 35.457207 38.067204 33.501022 41.334736 33.501022 C 44.948044 33.501022 46.761143 35.815254 46.761143 40.386097 L 46.761143 50.359005 L 54.23661 50.359005 L 54.23661 40.386097 C 54.23661 35.815254 56.046463 33.501022 59.659771 33.501022 C 62.946686 33.501022 64.562691 35.457207 64.562691 39.292953 L 64.562691 57.51268 Z"/>
</svg>
